<svg xmlns="http://www.w3.org/2000/svg" id="Layer_2" data-name="Layer 2" viewBox="0 0 923.08 273.95"><defs><style>      .cls-1 {        fill: #fff;      }      .cls-2 {        fill: #a6a6a6;      }    </style></defs><g id="Layer_1-2" data-name="Layer 1"><g><g><path class="cls-2" d="M849.57,0H73.55C70.72,0,67.93,0,65.1.01c-2.36.01-4.7.05-7.09.09-5.18.05-10.35.46-15.46,1.21-5.1.77-10.05,2.22-14.66,4.29-4.61,2.1-8.82,4.82-12.49,8.07-3.68,3.24-6.75,6.99-9.09,11.1-2.34,4.1-3.97,8.5-4.82,13.04-.86,4.53-1.32,9.12-1.38,13.71-.07,2.1-.08,4.21-.12,6.31v158.3c.04,2.13.05,4.19.12,6.31.06,4.59.52,9.18,1.38,13.71.85,4.54,2.47,8.94,4.82,13.04,2.34,4.1,5.41,7.83,9.09,11.06,3.65,3.27,7.86,5.99,12.49,8.07,4.62,2.08,9.56,3.54,14.66,4.32,5.11.75,10.28,1.15,15.46,1.21,2.38.05,4.73.07,7.09.07,2.82.01,5.62.01,8.44.01h776.02c2.77,0,5.59,0,8.36-.01,2.35,0,4.76-.03,7.11-.07,5.17-.06,10.33-.46,15.43-1.21,5.12-.79,10.08-2.24,14.72-4.32,4.62-2.08,8.83-4.81,12.47-8.07,3.67-3.24,6.75-6.97,9.11-11.06,2.33-4.11,3.94-8.5,4.77-13.04.86-4.53,1.34-9.11,1.43-13.71.03-2.13.03-4.19.03-6.31.06-2.49.06-4.96.06-7.49V65.31c0-2.51,0-5-.06-7.48,0-2.1,0-4.21-.03-6.31-.09-4.6-.57-9.18-1.43-13.71-.84-4.53-2.45-8.93-4.78-13.03-4.76-8.24-12.31-14.94-21.59-19.18-4.64-2.07-9.6-3.52-14.72-4.29-5.1-.75-10.26-1.16-15.43-1.21-2.35-.03-4.76-.07-7.11-.09-2.77-.01-5.59-.01-8.36-.01h0Z"></path><path d="M65.14,267.95c-2.35,0-4.64-.03-6.98-.07-4.83-.06-9.65-.43-14.42-1.12-4.45-.68-8.75-1.95-12.78-3.75-3.99-1.79-7.63-4.14-10.78-6.96-3.19-2.79-5.85-6.02-7.87-9.56-2.04-3.57-3.45-7.4-4.19-11.35-.79-4.25-1.22-8.54-1.28-12.84-.05-1.44-.11-6.25-.11-6.25V57.83s.07-4.74.11-6.13c.06-4.3.49-8.58,1.28-12.82.74-3.96,2.15-7.8,4.19-11.38,2.01-3.55,4.66-6.78,7.83-9.57,3.17-2.82,6.82-5.19,10.82-7,4.02-1.8,8.32-3.06,12.75-3.72,4.78-.69,9.62-1.07,14.47-1.12l6.96-.08h792.75l7.04.09c4.8.05,9.6.42,14.34,1.11,4.48.68,8.83,1.94,12.89,3.75,8.01,3.66,14.52,9.46,18.63,16.57,2.01,3.56,3.4,7.37,4.13,11.29.8,4.27,1.25,8.59,1.34,12.92.02,1.94.02,4.02.02,6.1.06,2.57.06,5.01.06,7.48v143.33c0,2.49,0,4.92-.06,7.36,0,2.23,0,4.27-.03,6.37-.09,4.25-.53,8.5-1.32,12.69-.72,3.98-2.12,7.84-4.17,11.44-2.03,3.51-4.68,6.71-7.83,9.49-3.15,2.83-6.8,5.2-10.79,7-4.05,1.82-8.39,3.09-12.87,3.77-4.77.69-9.59,1.06-14.42,1.12-2.31.05-4.61.07-6.92.07h-8.36s-784.43,0-784.43,0Z"></path></g><path class="cls-1" d="M191.06,139.29c.17-13.09,7.03-25.17,18.18-32.03-7.07-10.09-18.47-16.26-30.79-16.64-12.95-1.36-25.51,7.75-32.11,7.75s-16.89-7.62-27.83-7.39c-14.4.46-27.5,8.45-34.5,21.04-14.92,25.83-3.79,63.79,10.5,84.67,7.15,10.22,15.51,21.64,26.44,21.24,10.7-.44,14.69-6.82,27.61-6.82s16.54,6.82,27.7,6.57c11.48-.19,18.71-10.27,25.61-20.59,5.14-7.28,9.09-15.34,11.71-23.86-13.64-5.77-22.5-19.13-22.52-33.93h0ZM169.99,76.89c6.26-7.51,9.34-17.17,8.6-26.93-9.56,1-18.4,5.58-24.74,12.8-6.27,7.13-9.44,16.46-8.82,25.93,9.69.1,18.89-4.25,24.97-11.81ZM326.32,192.05h-36.51l-8.77,25.89h-15.47l34.59-95.79h16.07l34.58,95.79h-15.73l-8.76-25.89ZM293.58,180.1h28.94l-14.27-42.02h-.4l-14.28,42.02ZM425.5,183.02c0,21.7-11.62,35.65-29.15,35.65-9.06.47-17.6-4.27-21.97-12.22h-.33v34.59h-14.34v-92.94h13.88v11.62h.26c4.57-7.9,13.12-12.64,22.24-12.35,17.72,0,29.41,14.01,29.41,35.65h0ZM410.76,183.02c0-14.14-7.31-23.44-18.46-23.44s-18.32,9.49-18.32,23.43,7.37,23.5,18.32,23.5,18.46-9.23,18.46-23.5h0ZM502.36,183.02c0,21.7-11.62,35.65-29.15,35.65-9.06.47-17.6-4.27-21.97-12.22h-.33v34.59h-14.34v-92.94h13.88v11.62h.26c4.57-7.9,13.12-12.64,22.24-12.35,17.73,0,29.41,14.01,29.41,35.65h0ZM487.63,183.02c0-14.14-7.31-23.44-18.46-23.44s-18.32,9.49-18.32,23.43,7.37,23.5,18.32,23.5,18.46-9.23,18.46-23.5h0ZM553.17,191.25c1.06,9.5,10.29,15.74,22.9,15.74s20.78-6.24,20.78-14.8c0-7.44-5.24-11.89-17.66-14.94l-12.42-2.99c-17.59-4.25-25.76-12.47-25.76-25.82,0-16.53,14.4-27.88,34.86-27.88s34.12,11.35,34.58,27.88h-14.47c-.87-9.56-8.77-15.33-20.32-15.33s-19.45,5.84-19.45,14.34c0,6.77,5.05,10.76,17.39,13.81l10.55,2.59c19.65,4.65,27.82,12.54,27.82,26.55,0,17.92-14.28,29.15-36.98,29.15-21.24,0-35.59-10.96-36.51-28.29h14.67ZM642.92,131.57v16.53h13.28v11.35h-13.28v38.5c0,5.98,2.66,8.77,8.5,8.77,1.58-.03,3.15-.14,4.72-.33v11.29c-2.62.49-5.29.71-7.96.66-14.14,0-19.65-5.31-19.65-18.86v-40.03h-10.15v-11.35h10.15v-16.53h14.4ZM663.9,183.02c0-21.97,12.94-35.78,33.12-35.78s33.13,13.81,33.13,35.78-12.81,35.78-33.13,35.78-33.12-13.75-33.12-35.78ZM715.54,183.02c0-15.07-6.91-23.97-18.52-23.97s-18.52,8.96-18.52,23.97,6.9,23.96,18.52,23.96,18.52-8.83,18.52-23.96ZM741.97,148.1h13.67v11.89h.33c1.91-7.65,8.92-12.92,16.8-12.62,1.65,0,3.3.17,4.91.53v13.41c-2.09-.64-4.26-.93-6.44-.87-7.97-.32-14.7,5.88-15.02,13.85-.03.74,0,1.48.08,2.22v41.42h-14.34v-69.84ZM843.78,197.43c-1.93,12.68-14.28,21.38-30.07,21.38-20.32,0-32.93-13.61-32.93-35.45s12.68-36.11,32.32-36.11,31.47,13.27,31.47,34.45v4.91h-49.33v.87c-.89,10.01,6.51,18.84,16.51,19.72.76.07,1.52.09,2.27.06,6.96.65,13.52-3.34,16.13-9.82h13.61ZM795.32,176.58h34.92c.52-9.26-6.57-17.19-15.84-17.7-.43-.02-.86-.03-1.29-.02-9.76-.06-17.73,7.81-17.78,17.57,0,.05,0,.1,0,.15h0ZM291.79,50.05c11.22-.81,20.96,7.64,21.77,18.85.1,1.34.06,2.69-.11,4.02,0,14.7-7.95,23.16-21.66,23.16h-16.63v-46.03h16.63ZM282.31,89.56h8.68c7.98.48,14.83-5.6,15.31-13.58.06-.99.02-1.99-.13-2.97,1.09-7.94-4.46-15.26-12.4-16.35-.92-.13-1.85-.16-2.78-.11h-8.68v33.01ZM321.52,78.69c-.87-9.05,5.77-17.08,14.81-17.95s17.08,5.77,17.95,14.81c.1,1.04.1,2.09,0,3.13.88,9.05-5.73,17.1-14.78,17.98-9.05.88-17.1-5.73-17.98-14.78-.1-1.06-.1-2.14,0-3.2ZM347.23,78.69c0-7.53-3.38-11.93-9.32-11.93s-9.31,4.4-9.31,11.93,3.35,11.96,9.31,11.96,9.32-4.4,9.32-11.96ZM397.83,96.07h-7.11l-7.18-25.58h-.54l-7.15,25.58h-7.04l-9.57-34.74h6.95l6.22,26.5h.51l7.14-26.5h6.58l7.14,26.5h.54l6.19-26.5h6.86l-9.54,34.74ZM415.42,61.34h6.6v5.52h.51c1.78-4.06,5.94-6.55,10.37-6.19,6.22-.47,11.65,4.2,12.11,10.42.06.83.03,1.67-.09,2.5v22.49h-6.86v-20.76c0-5.58-2.43-8.36-7.5-8.36-4.4-.2-8.13,3.19-8.33,7.59-.02.4,0,.81.04,1.21v20.32h-6.86v-34.73ZM455.84,47.78h6.85v48.3h-6.85v-48.3ZM472.23,78.69c-.87-9.05,5.77-17.08,14.82-17.95,9.05-.87,17.08,5.77,17.95,14.82.1,1.04.1,2.09,0,3.14.88,9.05-5.74,17.1-14.79,17.97-9.05.88-17.1-5.74-17.97-14.79-.1-1.06-.1-2.12,0-3.18ZM497.94,78.69c0-7.53-3.38-11.93-9.32-11.93s-9.31,4.4-9.31,11.93,3.35,11.96,9.31,11.96,9.32-4.4,9.32-11.96ZM512.21,86.25c0-6.25,4.66-9.86,12.92-10.37l9.41-.54v-3c0-3.67-2.43-5.74-7.11-5.74-3.83,0-6.48,1.4-7.24,3.86h-6.64c.7-5.97,6.31-9.79,14.19-9.79,8.71,0,13.62,4.34,13.62,11.67v23.73h-6.6v-4.88h-.54c-2.24,3.56-6.23,5.65-10.43,5.45-5.76.6-10.92-3.59-11.52-9.35-.04-.35-.05-.7-.06-1.04h0ZM534.54,83.28v-2.9l-8.48.54c-4.78.32-6.95,1.95-6.95,5.01s2.71,4.95,6.44,4.95c4.5.46,8.52-2.82,8.97-7.32,0-.09.02-.18.02-.27ZM550.37,78.69c0-10.98,5.64-17.93,14.42-17.93,4.43-.2,8.58,2.17,10.65,6.09h.51v-19.08h6.85v48.3h-6.57v-5.49h-.54c-2.23,3.89-6.43,6.23-10.91,6.06-8.84,0-14.42-6.95-14.42-17.95h0ZM557.45,78.69c0,7.37,3.47,11.8,9.28,11.8s9.35-4.5,9.35-11.77-3.61-11.8-9.35-11.8-9.28,4.46-9.28,11.77ZM611.17,78.69c-.87-9.05,5.77-17.08,14.81-17.95s17.08,5.77,17.95,14.81c.1,1.04.1,2.09,0,3.13.88,9.05-5.73,17.1-14.78,17.98s-17.1-5.73-17.98-14.78c-.1-1.06-.1-2.14,0-3.2ZM636.88,78.69c0-7.53-3.38-11.93-9.32-11.93s-9.31,4.4-9.31,11.93,3.35,11.96,9.31,11.96,9.32-4.4,9.32-11.96ZM653.13,61.34h6.6v5.52h.51c1.78-4.06,5.94-6.55,10.37-6.19,6.22-.47,11.65,4.2,12.11,10.42.06.83.03,1.67-.09,2.5v22.49h-6.86v-20.76c0-5.58-2.43-8.36-7.5-8.36-4.4-.2-8.13,3.19-8.33,7.59-.02.4,0,.81.04,1.21v20.32h-6.85v-34.73ZM721.37,52.69v8.81h7.53v5.77h-7.53v17.86c0,3.64,1.5,5.23,4.91,5.23.87,0,1.75-.06,2.61-.16v5.71c-1.23.22-2.48.34-3.73.35-7.62,0-10.66-2.68-10.66-9.38v-19.62h-5.51v-5.77h5.51v-8.8h6.86ZM738.26,47.78h6.8v19.14h.54c1.87-4.1,6.1-6.59,10.59-6.22,6.31-.34,11.7,4.49,12.05,10.8.04.72.01,1.43-.09,2.15v22.43h-6.86v-20.73c0-5.55-2.58-8.36-7.43-8.36-4.47-.37-8.38,2.96-8.75,7.43-.04.46-.04.92,0,1.38v20.29h-6.86v-48.3ZM808.12,86.69c-1.92,6.55-8.26,10.79-15.05,10.05-8.71.23-15.96-6.64-16.19-15.36-.02-.86.03-1.72.14-2.57-1.18-8.77,4.98-16.83,13.75-18.01.75-.1,1.51-.15,2.27-.14,9.66,0,15.5,6.6,15.5,17.51v2.39h-24.53v.38c-.43,5.05,3.33,9.49,8.38,9.92.29.02.58.04.87.03,3.35.4,6.62-1.26,8.26-4.21h6.6ZM784,75.5h17.54c.34-4.62-3.12-8.64-7.74-8.98-.27-.02-.54-.03-.81-.02-4.91-.06-8.93,3.87-8.99,8.77,0,.08,0,.15,0,.23Z"></path></g></g></svg>