<svg xmlns="http://www.w3.org/2000/svg" xmlns:xlink="http://www.w3.org/1999/xlink" id="Layer_2" data-name="Layer 2" viewBox="0 0 923.08 273.95"><defs><style>      .cls-1 {        fill: url(#linear-gradient-2);      }      .cls-2 {        fill: url(#linear-gradient-10);      }      .cls-3 {        fill: #fff;      }      .cls-4 {        fill: #a6a6a6;      }      .cls-5 {        fill: url(#linear-gradient-4);      }      .cls-6 {        fill: url(#linear-gradient-3);      }      .cls-7 {        fill: url(#linear-gradient-5);      }      .cls-8 {        fill: url(#linear-gradient-8);      }      .cls-9 {        fill: url(#linear-gradient-7);      }      .cls-10 {        fill: url(#linear-gradient-9);      }      .cls-11 {        fill: url(#linear-gradient-6);      }      .cls-12 {        fill: #00c1ff;      }      .cls-13 {        fill: url(#linear-gradient);      }    </style><linearGradient id="linear-gradient" x1="50.88" y1="-1479.34" x2="-89.25" y2="-1209.85" gradientTransform="translate(111.43 691) scale(.22 .43)" gradientUnits="userSpaceOnUse"><stop offset="0" stop-color="#00a0ff"></stop><stop offset="0" stop-color="#00a1ff"></stop><stop offset=".26" stop-color="#00beff"></stop><stop offset=".51" stop-color="#00d2ff"></stop><stop offset=".76" stop-color="#00dfff"></stop><stop offset="1" stop-color="#00e3ff"></stop></linearGradient><linearGradient id="linear-gradient-2" x1="252" y1="-2207.14" x2="-233" y2="-2207.14" gradientTransform="translate(145.38 749.94) scale(.34 .28)" gradientUnits="userSpaceOnUse"><stop offset="0" stop-color="#ffe000"></stop><stop offset=".41" stop-color="#ffbd00"></stop><stop offset=".78" stop-color="orange"></stop><stop offset="1" stop-color="#ff9c00"></stop></linearGradient><linearGradient id="linear-gradient-3" x1="301.53" y1="-2435.42" x2="-140.54" y2="-2096.57" gradientTransform="translate(56.45 814.33) scale(.35 .27)" gradientUnits="userSpaceOnUse"><stop offset="0" stop-color="#ff3a44"></stop><stop offset="1" stop-color="#c31162"></stop></linearGradient><linearGradient id="linear-gradient-4" x1="-39.75" y1="-2517.77" x2="157.34" y2="-2366.46" gradientTransform="translate(56.51 727.43) scale(.35 .27)" gradientUnits="userSpaceOnUse"><stop offset="0" stop-color="#32a071"></stop><stop offset=".07" stop-color="#2da771"></stop><stop offset=".48" stop-color="#15cf74"></stop><stop offset=".8" stop-color="#06e775"></stop><stop offset="1" stop-color="#00f076"></stop></linearGradient><linearGradient id="linear-gradient-5" x1="350.41" y1="-2997.23" x2="-15.55" y2="-2805.15" gradientTransform="translate(21.8 852.34) scale(.43 .22)" gradientUnits="userSpaceOnUse"><stop offset="0" stop-color="#cc2e36"></stop><stop offset="1" stop-color="#9c0e4e"></stop></linearGradient><linearGradient id="linear-gradient-6" x1="-234.26" y1="-1048.05" x2="-310.07" y2="-828.47" gradientTransform="translate(130.19 616.54) scale(.18 .52)" gradientUnits="userSpaceOnUse"><stop offset="0" stop-color="#008de0"></stop><stop offset="0" stop-color="#008de0"></stop><stop offset=".26" stop-color="#00a7e0"></stop><stop offset=".51" stop-color="#00b8e0"></stop><stop offset=".76" stop-color="#00c4e0"></stop><stop offset="1" stop-color="#00c7e0"></stop></linearGradient><linearGradient id="linear-gradient-7" x1="189.85" y1="-2384.51" x2="-260.19" y2="-2384.51" gradientTransform="translate(161.55 765.93) scale(.37 .26)" gradientUnits="userSpaceOnUse"><stop offset="0" stop-color="#e0c500"></stop><stop offset=".41" stop-color="#e0a600"></stop><stop offset=".78" stop-color="#e09100"></stop><stop offset="1" stop-color="#e08900"></stop></linearGradient><linearGradient id="linear-gradient-8" x1="189.84" y1="-2385.13" x2="-260.2" y2="-2385.13" gradientTransform="translate(161.55 737.16) scale(.37 .26)" gradientUnits="userSpaceOnUse"><stop offset="0" stop-color="#ffe840"></stop><stop offset=".41" stop-color="#ffce40"></stop><stop offset=".78" stop-color="#ffbc40"></stop><stop offset="1" stop-color="#ffb540"></stop></linearGradient><linearGradient id="linear-gradient-9" x1="-329.84" y1="-772.78" x2="-405.22" y2="-563.31" gradientTransform="translate(130.3 455.72) scale(.18 .52)" gradientUnits="userSpaceOnUse"><stop offset="0" stop-color="#40b8ff"></stop><stop offset="0" stop-color="#40b9ff"></stop><stop offset=".26" stop-color="#40ceff"></stop><stop offset=".51" stop-color="#40ddff"></stop><stop offset=".76" stop-color="#40e7ff"></stop><stop offset="1" stop-color="#40eaff"></stop></linearGradient><linearGradient id="linear-gradient-10" x1="68.51" y1="-3049.5" x2="231.94" y2="-2963.72" gradientTransform="translate(21.8 735.91) scale(.43 .22)" gradientUnits="userSpaceOnUse"><stop offset="0" stop-color="#65b895"></stop><stop offset=".07" stop-color="#62bd95"></stop><stop offset=".48" stop-color="#50db97"></stop><stop offset=".8" stop-color="#44ed98"></stop><stop offset="1" stop-color="#40f498"></stop></linearGradient></defs><g id="Layer_1-2" data-name="Layer 1"><g><path d="M888.89,273.95H34.19c-18.8,0-34.19-15.41-34.19-34.24V34.24C0,15.41,15.38,0,34.19,0h854.7c18.8,0,34.19,15.41,34.19,34.24v205.46c0,18.83-15.38,34.24-34.19,34.24"></path><path class="cls-4" d="M888.89,0H34.19C15.38,0,0,15.41,0,34.24v205.46c0,18.83,15.38,34.24,34.19,34.24h854.7c18.8,0,34.19-15.41,34.19-34.24V34.24c0-18.83-15.38-34.24-34.19-34.24M888.89,5.48c15.84,0,28.72,12.91,28.72,28.76v205.46c0,15.86-12.88,28.77-28.72,28.77H34.19c-15.83,0-28.72-12.91-28.72-28.77V34.24c0-15.86,12.88-28.76,28.72-28.76h854.7"></path><path class="cls-3" d="M324.23,70.15c0,5.74-1.7,10.31-5.09,13.72-3.86,4.05-8.89,6.08-15.07,6.08s-10.96-2.05-15.1-6.17c-4.15-4.11-6.22-9.21-6.22-15.29s2.07-11.18,6.22-15.3c4.14-4.11,9.17-6.17,15.1-6.17,2.94,0,5.75.58,8.42,1.72,2.67,1.15,4.81,2.68,6.42,4.59l-3.61,3.61c-2.72-3.25-6.46-4.87-11.23-4.87-4.32,0-8.05,1.52-11.2,4.56-3.15,3.04-4.73,6.99-4.73,11.85s1.58,8.81,4.73,11.85c3.15,3.04,6.89,4.56,11.2,4.56,4.58,0,8.4-1.53,11.46-4.59,1.98-1.99,3.13-4.76,3.44-8.32h-14.9v-4.94h19.88c.19,1.07.29,2.1.29,3.1"></path><path class="cls-3" d="M324.23,70.15h-.68c0,5.61-1.64,9.96-4.89,13.23h0s0,.01,0,.01c-3.74,3.91-8.54,5.86-14.58,5.87-5.76,0-10.59-1.98-14.62-5.97-4.02-4-6.01-8.88-6.01-14.81,0-5.93,2-10.81,6.01-14.81,4.03-3.99,8.85-5.97,14.62-5.97,2.85,0,5.56.56,8.15,1.67,2.59,1.12,4.64,2.58,6.16,4.4l.52-.44-.48-.48-3.61,3.62.48.48.53-.44c-2.84-3.41-6.83-5.13-11.76-5.12-4.48,0-8.42,1.6-11.68,4.75-3.29,3.17-4.94,7.34-4.94,12.34,0,5.01,1.65,9.18,4.94,12.34,3.26,3.16,7.2,4.76,11.68,4.75,4.73,0,8.77-1.6,11.94-4.79,2.12-2.13,3.32-5.08,3.64-8.75l.06-.74h-14.96v-3.57h19.2v-.68l-.67.12c.19,1.04.28,2.03.28,2.98h1.37c0-1.04-.1-2.11-.3-3.22l-.1-.56h-21.14v6.31h15.58v-.68l-.68-.06c-.3,3.45-1.4,6.04-3.24,7.9-2.94,2.93-6.54,4.38-10.98,4.39-4.16,0-7.69-1.44-10.73-4.37-3.01-2.92-4.51-6.65-4.52-11.36,0-4.71,1.51-8.44,4.52-11.36,3.04-2.93,6.57-4.36,10.73-4.37,4.62.01,8.12,1.54,10.71,4.63l.48.57,4.13-4.14.44-.44-.4-.48c-1.68-2.01-3.92-3.6-6.67-4.78-2.76-1.19-5.66-1.78-8.69-1.78-6.08,0-11.32,2.13-15.58,6.37-4.27,4.23-6.42,9.54-6.42,15.78,0,6.24,2.15,11.55,6.42,15.78,4.25,4.23,9.5,6.37,15.58,6.36,6.33,0,11.58-2.1,15.57-6.29l-.49-.47.48.48c3.54-3.54,5.3-8.33,5.29-14.2h-.68M355.74,52.99h-18.68v13.03h16.85v4.94h-16.85v13.03h18.68v5.05h-23.95v-41.09h23.95v5.05"></path><path class="cls-3" d="M355.75,52.99v-.68h-19.37v14.4h16.85v3.57h-16.85v14.4h18.68v3.68h-22.58v-39.72h22.58v4.36h.68v-.68.68h.68v-5.73h-25.32v42.46h25.32v-6.42h-18.68v-11.66h16.85v-6.31h-16.85v-11.66h18.68v-.68h-.68M377.98,89.03h-5.27v-36.04h-11.46v-5.05h28.19v5.05h-11.46v36.04"></path><path class="cls-3" d="M377.98,89.03v-.69h-4.59v-36.04h-11.46v-3.68h26.82v3.68h-11.46v36.73h.68v-.68.68h.68v-35.36h11.46v-6.42h-29.56v6.42h11.46v36.04h6.64v-.68h-.68M409.83,89.03v-41.09h5.27v41.09h-5.27"></path><path class="cls-3" d="M409.83,89.03h.68v-40.41h3.9v39.72h-4.59v.68h.68-.68v.68h5.95v-42.46h-6.64v42.46h.68v-.68M438.49,89.03h-5.28v-36.04h-11.46v-5.05h28.19v5.05h-11.46v36.04"></path><path class="cls-3" d="M438.49,89.03v-.69h-4.59v-36.04h-11.46v-3.68h26.82v3.68h-11.46v36.73h.68v-.68.68h.68v-35.36h11.46v-6.42h-29.56v6.42h11.46v36.04h6.64v-.68h-.68M477.12,80.28c3.04,3.08,6.75,4.62,11.15,4.62s8.11-1.54,11.14-4.62c3.04-3.08,4.56-7.02,4.56-11.8s-1.52-8.72-4.56-11.8c-3.03-3.08-6.75-4.62-11.14-4.62s-8.11,1.54-11.15,4.62c-3.03,3.08-4.55,7.01-4.55,11.8s1.52,8.72,4.55,11.8ZM503.31,83.72c-4.03,4.15-9.05,6.23-15.04,6.23s-11.01-2.07-15.04-6.23c-4.04-4.15-6.04-9.23-6.04-15.24s2.01-11.09,6.04-15.24c4.02-4.16,9.04-6.23,15.04-6.23s10.96,2.09,15.02,6.26c4.05,4.17,6.07,9.24,6.07,15.21s-2.02,11.09-6.04,15.24Z"></path><path class="cls-3" d="M477.12,80.28l-.49.48c3.15,3.2,7.08,4.83,11.63,4.82,4.55,0,8.49-1.62,11.63-4.82,3.17-3.21,4.76-7.35,4.76-12.28,0-4.92-1.59-9.07-4.76-12.28-3.14-3.2-7.08-4.83-11.63-4.82-4.55,0-8.48,1.62-11.63,4.82-3.16,3.21-4.76,7.35-4.75,12.28,0,4.92,1.59,9.07,4.75,12.28l.49-.48.49-.48c-2.9-2.96-4.35-6.68-4.36-11.31,0-4.64,1.46-8.36,4.36-11.31,2.93-2.96,6.42-4.41,10.66-4.41,4.23,0,7.74,1.46,10.66,4.41,2.91,2.96,4.36,6.68,4.36,11.31,0,4.64-1.46,8.36-4.36,11.31-2.92,2.96-6.42,4.41-10.66,4.41-4.24,0-7.73-1.46-10.66-4.41l-.49.48ZM503.31,83.72l-.49-.48c-3.92,4.02-8.72,6.01-14.55,6.02-5.84,0-10.64-2-14.55-6.02l-.02-.02.02.02c-3.91-4.04-5.84-8.91-5.85-14.76,0-5.85,1.94-10.72,5.85-14.76,3.91-4.02,8.71-6.01,14.55-6.02,5.8,0,10.58,2.01,14.53,6.05,3.93,4.06,5.87,8.92,5.88,14.73,0,5.85-1.94,10.72-5.85,14.76l.49.48.49.48c4.14-4.26,6.24-9.55,6.24-15.71,0-6.12-2.1-11.4-6.26-15.68-4.17-4.3-9.39-6.47-15.51-6.47-6.15,0-11.39,2.16-15.53,6.44h0c-4.15,4.26-6.24,9.55-6.24,15.71,0,6.16,2.08,11.45,6.24,15.71l.02.02-.02-.02c4.14,4.28,9.38,6.44,15.53,6.44,6.15,0,11.39-2.15,15.53-6.44l-.49-.48ZM516.75,89.03v-41.09h6.42l19.94,31.97h.23l-.23-7.92v-24.05h5.28v41.09h-5.5l-20.86-33.52h-.23l.23,7.92v25.59h-5.27"></path><path class="cls-3" d="M516.75,89.03h.68v-40.41h5.35l19.94,31.97h1.31l-.25-8.61v-23.35h3.91v39.72h-4.44l-20.86-33.52h-1.31l.25,8.62v24.9h-4.58v.68h.68-.68v.68h5.95v-26.29l-.23-7.93-.68.02v.68h.23v-.68l-.58.36,21.06,33.84h6.57v-42.46h-6.64v24.74l.23,7.93.68-.02v-.68h-.23v.68l.58-.36-20.14-32.29h-7.48v42.46h.68v-.68M731.19,205.46h12.76v-85.62h-12.76v85.62ZM846.11,150.68l-14.63,37.12h-.44l-15.18-37.12h-13.74l22.76,51.88-12.98,28.86h13.31l35.08-80.74h-14.19ZM773.75,195.74c-4.18,0-10.01-2.09-10.01-7.27,0-6.61,7.26-9.14,13.52-9.14,5.61,0,8.25,1.21,11.66,2.87-.99,7.93-7.81,13.55-15.17,13.55h0ZM775.29,148.81c-9.24,0-18.8,4.08-22.76,13.11l11.32,4.74c2.42-4.74,6.93-6.28,11.66-6.28,6.6,0,13.31,3.97,13.42,11.02v.88c-2.31-1.32-7.25-3.3-13.31-3.3-12.21,0-24.64,6.72-24.64,19.28,0,11.46,10.01,18.84,21.22,18.84,8.58,0,13.31-3.86,16.28-8.37h.44v6.61h12.31v-32.83c0-15.2-11.32-23.68-25.95-23.68h0ZM696.44,161.11h-18.15v-29.35h18.15c9.54,0,14.95,7.91,14.95,14.67s-5.42,14.67-14.95,14.67ZM696.11,119.84h-30.57v85.62h12.75v-32.44h17.82c14.14,0,28.04-10.25,28.04-26.59s-13.9-26.59-28.04-26.59h0ZM529.4,195.75c-8.81,0-16.19-7.39-16.19-17.54s7.38-17.76,16.19-17.76,15.53,7.5,15.53,17.76-6.83,17.54-15.53,17.54h0ZM544.05,155.48h-.44c-2.86-3.42-8.37-6.51-15.31-6.51-14.54,0-27.87,12.8-27.87,29.24s13.33,29.02,27.87,29.02c6.94,0,12.45-3.09,15.31-6.62h.44v4.19c0,11.15-5.95,17.1-15.53,17.1-7.82,0-12.67-5.63-14.65-10.37l-11.12,4.63c3.19,7.72,11.68,17.21,25.78,17.21,14.98,0,27.65-8.83,27.65-30.34v-52.3h-12.12v4.74ZM564.98,205.46h12.78v-85.62h-12.78v85.62ZM596.6,177.21c-.33-11.26,8.7-16.99,15.2-16.99,5.07,0,9.36,2.54,10.79,6.18l-25.99,10.81ZM636.25,167.51c-2.42-6.51-9.81-18.54-24.9-18.54s-27.43,11.81-27.43,29.13c0,16.33,12.34,29.13,28.86,29.13,13.33,0,21.04-8.17,24.24-12.91l-9.91-6.62c-3.3,4.86-7.82,8.06-14.32,8.06s-11.12-2.98-14.1-8.83l38.88-16.11-1.32-3.31ZM326.45,157.91v12.36h29.52c-.88,6.95-3.19,12.03-6.72,15.56-4.29,4.3-11.01,9.05-22.8,9.05-18.18,0-32.39-14.67-32.39-32.88s14.21-32.88,32.39-32.88c9.8,0,16.96,3.86,22.25,8.83l8.7-8.72c-7.38-7.06-17.18-12.47-30.95-12.47-24.9,0-45.83,20.3-45.83,45.24s20.93,45.24,45.83,45.24c13.44,0,23.57-4.41,31.5-12.69,8.15-8.17,10.69-19.64,10.69-28.91,0-2.87-.22-5.52-.66-7.72h-41.53ZM402.21,195.75c-8.81,0-16.42-7.28-16.42-17.65s7.6-17.65,16.42-17.65,16.41,7.17,16.41,17.65-7.6,17.65-16.41,17.65ZM402.21,148.97c-16.08,0-29.19,12.25-29.19,29.13s13.11,29.13,29.19,29.13,29.19-12.36,29.19-29.13-13.11-29.13-29.19-29.13ZM465.89,195.75c-8.81,0-16.41-7.28-16.41-17.65s7.6-17.65,16.41-17.65,16.41,7.17,16.41,17.65-7.6,17.65-16.41,17.65h0ZM465.89,148.97c-16.08,0-29.19,12.25-29.19,29.13s13.11,29.13,29.19,29.13,29.19-12.36,29.19-29.13-13.11-29.13-29.19-29.13h0Z"></path><path class="cls-12" d="M71.85,52.13c-2.29,2.07-3.66,5.53-3.66,10.12v-1.04,151.5-1c0,4.24,1.17,7.51,3.16,9.62l.51.49h0c1.61,1.46,3.68,2.23,6.04,2.23,2.31,0,4.91-.74,7.66-2.3l99.25-56.48,34.09-19.4c4.33-2.46,6.76-5.64,7.17-8.88h0c-.41-3.26-2.84-6.43-7.17-8.9l-34.09-19.4-99.25-56.48c-2.75-1.56-5.36-2.3-7.67-2.3s-4.43.77-6.04,2.22h0Z"></path><path class="cls-13" d="M71.86,221.82l-.51-.49c-1.99-2.11-3.16-5.38-3.16-9.62v1V61.25v1c0-4.59,1.37-8.05,3.66-10.12l84.72,84.85-84.71,84.85"></path><path class="cls-1" d="M184.81,165.27l-28.24-28.29,28.24-28.29,34.09,19.4c4.33,2.46,6.76,5.64,7.17,8.88h0c-.41,3.25-2.84,6.43-7.17,8.89l-34.09,19.4"></path><path class="cls-6" d="M77.9,224.05c-2.37,0-4.43-.77-6.04-2.23h0s84.71-84.85,84.71-84.85l28.24,28.29-99.25,56.48c-2.75,1.56-5.35,2.3-7.66,2.3"></path><path class="cls-5" d="M156.57,136.98L71.85,52.13c1.61-1.45,3.67-2.22,6.04-2.22s4.92.74,7.67,2.3l99.25,56.48-28.24,28.29"></path><path class="cls-7" d="M77.91,225.06c-2.37,0-4.43-.77-6.04-2.23h0s-.01-.01-.02-.02l-.44-.43s-.03-.03-.04-.04l.51-.51c1.61,1.46,3.68,2.23,6.04,2.23,2.31,0,4.91-.74,7.66-2.3l99.25-56.48.64.64-.64.37-99.24,56.48c-2.5,1.42-4.88,2.16-7.03,2.29-.21.01-.42.02-.62.02"></path><path class="cls-11" d="M71.35,222.34c-1.99-2.11-3.16-5.38-3.16-9.62v-1c0,4.24,1.17,7.51,3.16,9.62l.51.49-.51.51"></path><path class="cls-9" d="M185.45,165.91l-.64-.64,34.09-19.4c4.33-2.46,6.76-5.64,7.17-8.88,0,1.19-.26,2.38-.79,3.53-1.06,2.33-3.19,4.53-6.38,6.35l-33.46,19.04"></path><path class="cls-8" d="M226.07,136.98c-.41-3.25-2.84-6.42-7.17-8.88l-34.09-19.4.64-.64h0l33.46,19.04c4.77,2.72,7.16,6.3,7.17,9.88"></path><path class="cls-10" d="M68.19,62.25v-1.05c0-.38.01-.75.03-1.1v-.02s0-.01,0-.02v-.04c.21-3.65,1.34-6.5,3.13-8.4l.5.5c-2.29,2.07-3.66,5.53-3.66,10.12"></path><path class="cls-2" d="M184.81,108.69l-99.25-56.48c-2.75-1.56-5.36-2.3-7.67-2.3s-4.43.77-6.04,2.22l-.5-.5c.16-.17.32-.33.49-.48,0,0,.01-.01.02-.02,1.6-1.44,3.64-2.21,5.98-2.23h.05c2.32,0,4.92.74,7.67,2.3l99.89,56.84h0s-.64.64-.64.64"></path></g></g></svg>